<?xml version="1.0" encoding="utf-8"?>
<!-- Generator: Adobe Illustrator 27.9.0, SVG Export Plug-In . SVG Version: 6.00 Build 0)  -->
<svg version="1.1" id="a" xmlns="http://www.w3.org/2000/svg" xmlns:xlink="http://www.w3.org/1999/xlink" x="0px" y="0px"
	 viewBox="0 0 52 40" style="enable-background:new 0 0 52 40;" xml:space="preserve">
<style type="text/css">
	.st0{fill:#FFFFFF;}
</style>
<g id="b">
	<path id="c" class="st0" d="M51.5,10.6C44.7,3.8,35.6,0,26,0C16.5-0.1,7.3,3.8,0.6,10.6c-0.8,0.7-0.8,2-0.1,2.7c0,0,0,0,0.1,0.1
		l2.8,2.8c0.7,0.8,2,0.8,2.7,0.1c0,0,0,0,0.1-0.1c10.9-10.9,28.7-10.9,39.6,0c0.7,0.8,2,0.8,2.7,0.1c0,0,0,0,0.1-0.1l2.8-2.8
		C51.8,13,52,12.5,52,12C52.1,11.5,51.9,10.9,51.5,10.6"/>
	<path id="d" class="st0" d="M26,16c-5.3,0-10.3,2.1-14,5.8c-0.8,0.7-0.8,2-0.1,2.7c0,0,0,0,0.1,0.1l2.8,2.8c0.7,0.8,2,0.8,2.7,0.1
		c0,0,0,0,0.1-0.1c2.2-2.2,5.3-3.4,8.4-3.4c3.1,0.1,6.1,1.3,8.4,3.4c0.7,0.8,2,0.8,2.7,0.1c0,0,0,0,0.1-0.1l2.8-2.8
		c0.8-0.7,0.8-2,0.1-2.7c0,0,0,0-0.1-0.1C36.3,18.1,31.3,16,26,16"/>
	<path id="e" class="st0" d="M26,32c2.2,0,4,1.8,4,4s-1.8,4-4,4s-4-1.8-4-4S23.8,32,26,32"/>
</g>
</svg>
