<svg id="Group_3989" data-name="Group 3989" xmlns="http://www.w3.org/2000/svg" xmlns:xlink="http://www.w3.org/1999/xlink" width="128.453" height="62.717" viewBox="0 0 128.453 62.717">
  <defs>
    <clipPath id="clip-path">
      <rect id="Rectangle_140208" data-name="Rectangle 140208" width="128.453" height="62.717" fill="#282b47"/>
    </clipPath>
  </defs>
  <rect id="Rectangle_140050" data-name="Rectangle 140050" width="42.265" height="2.682" transform="translate(85.394 23.908)" fill="#282b47"/>
  <g id="Group_3986" data-name="Group 3986">
    <g id="Group_3985" data-name="Group 3985" clip-path="url(#clip-path)">
      <path id="Path_18512" data-name="Path 18512" d="M98.654,28.339v-.174a.388.388,0,0,0,.108-.289c0-.179-.09-.329-.2-.329s-.2.147-.2.329a.388.388,0,0,0,.108.289v.172l-.073.065a.069.069,0,0,0-.011.1l.011.011.1.08v.09h.139v-.09l.1-.09a.069.069,0,0,0,.011-.1l-.011-.011Z" transform="translate(-10.236 -2.867)" fill="#fff"/>
      <path id="Path_18513" data-name="Path 18513" d="M99.706,28.339v-.174a.39.39,0,0,0,.108-.289c0-.179-.09-.329-.2-.329s-.2.147-.2.329a.385.385,0,0,0,.108.289v.172l-.073.065a.069.069,0,0,0-.011.1l.011.011.1.08v.09h.139v-.09l.1-.09a.069.069,0,0,0,.011-.1l-.011-.011Z" transform="translate(-10.345 -2.867)" fill="#fff"/>
      <path id="Path_18514" data-name="Path 18514" d="M100.757,28.339v-.174a.388.388,0,0,0,.108-.289c0-.179-.09-.329-.2-.329s-.2.147-.2.329a.388.388,0,0,0,.108.289v.172l-.073.065a.069.069,0,0,0-.011.1l.011.011.1.08v.09h.139v-.09l.1-.09a.069.069,0,0,0,.011-.1l-.011-.011Z" transform="translate(-10.455 -2.867)" fill="#fff"/>
      <path id="Path_18515" data-name="Path 18515" d="M101.808,28.339v-.174a.388.388,0,0,0,.108-.289c0-.179-.09-.329-.2-.329s-.2.147-.2.329a.388.388,0,0,0,.108.289v.172l-.073.065a.069.069,0,0,0-.011.1l.011.011.1.08v.09h.139v-.09l.1-.09a.069.069,0,0,0,.011-.1l-.011-.011Z" transform="translate(-10.564 -2.867)" fill="#fff"/>
      <path id="Path_18516" data-name="Path 18516" d="M102.859,28.339v-.174a.388.388,0,0,0,.108-.289c0-.179-.09-.329-.2-.329s-.2.147-.2.329a.388.388,0,0,0,.108.289v.172l-.073.065a.069.069,0,0,0-.011.1l.011.011.1.08v.09h.139v-.09l.1-.09a.069.069,0,0,0,.011-.1l-.011-.011Z" transform="translate(-10.673 -2.867)" fill="#fff"/>
      <path id="Path_18517" data-name="Path 18517" d="M103.911,28.339v-.174a.388.388,0,0,0,.108-.289c0-.179-.09-.329-.2-.329s-.2.147-.2.329a.388.388,0,0,0,.108.289v.172l-.073.065a.069.069,0,0,0-.011.1l.011.011.1.08v.09h.139v-.09l.1-.09a.069.069,0,0,0,.011-.1l-.011-.011Z" transform="translate(-10.783 -2.867)" fill="#fff"/>
      <path id="Path_18518" data-name="Path 18518" d="M104.962,28.339v-.174a.388.388,0,0,0,.108-.289c0-.179-.09-.329-.2-.329s-.2.147-.2.329a.388.388,0,0,0,.108.289v.172l-.073.065a.069.069,0,0,0-.011.1l.011.011.1.08v.09h.139v-.09l.1-.09a.069.069,0,0,0,.011-.1l-.011-.011Z" transform="translate(-10.892 -2.867)" fill="#fff"/>
      <path id="Path_18519" data-name="Path 18519" d="M106.013,28.339v-.174a.388.388,0,0,0,.108-.289c0-.179-.09-.329-.2-.329s-.2.147-.2.329a.388.388,0,0,0,.108.289v.172l-.073.065a.069.069,0,0,0-.011.1l.011.011.1.08v.09h.139v-.09l.1-.09a.069.069,0,0,0,.011-.1l-.011-.011Z" transform="translate(-11.002 -2.867)" fill="#fff"/>
      <path id="Path_18520" data-name="Path 18520" d="M109.325,28.339v-.174a.388.388,0,0,0,.108-.289c0-.179-.09-.329-.2-.329s-.2.147-.2.329a.388.388,0,0,0,.108.289v.172l-.073.065a.069.069,0,0,0-.011.1l.011.011.1.08v.09h.139v-.09l.1-.09a.069.069,0,0,0,.011-.1l-.011-.011Z" transform="translate(-11.346 -2.867)" fill="#fff"/>
      <path id="Path_18521" data-name="Path 18521" d="M110.377,28.339v-.174a.388.388,0,0,0,.108-.289c0-.179-.09-.329-.2-.329s-.2.147-.2.329a.388.388,0,0,0,.108.289v.172l-.073.065a.069.069,0,0,0-.011.1l.011.011.1.08v.09h.138v-.09l.1-.09a.069.069,0,0,0,.011-.1l-.011-.011Z" transform="translate(-11.456 -2.867)" fill="#fff"/>
      <path id="Path_18522" data-name="Path 18522" d="M111.428,28.339v-.174a.388.388,0,0,0,.108-.289c0-.179-.09-.329-.2-.329s-.2.147-.2.329a.388.388,0,0,0,.108.289v.172l-.073.065a.069.069,0,0,0-.011.1l.011.011.1.08v.09h.139v-.09l.1-.09a.069.069,0,0,0,.011-.1l-.011-.011Z" transform="translate(-11.565 -2.867)" fill="#fff"/>
      <path id="Path_18523" data-name="Path 18523" d="M112.479,28.339v-.174a.388.388,0,0,0,.108-.289c0-.179-.09-.329-.2-.329s-.2.147-.2.329a.388.388,0,0,0,.108.289v.172l-.073.065a.069.069,0,0,0-.011.1l.011.011.1.08v.09h.139v-.09l.1-.09a.069.069,0,0,0,.011-.1l-.011-.011Z" transform="translate(-11.675 -2.867)" fill="#fff"/>
      <path id="Path_18524" data-name="Path 18524" d="M113.527,28.339v-.174a.388.388,0,0,0,.108-.289c0-.179-.09-.329-.2-.329s-.2.147-.2.329a.388.388,0,0,0,.108.289v.172l-.073.065a.069.069,0,0,0-.011.1l.011.011.1.08v.09h.139v-.09l.1-.09a.069.069,0,0,0,.011-.1l-.011-.011Z" transform="translate(-11.784 -2.867)" fill="#fff"/>
      <path id="Path_18525" data-name="Path 18525" d="M114.582,28.339v-.174a.388.388,0,0,0,.108-.289c0-.179-.09-.329-.2-.329s-.2.147-.2.329a.388.388,0,0,0,.108.289v.172l-.073.065a.069.069,0,0,0-.011.1l.011.011.1.08v.09h.139v-.09l.1-.09a.069.069,0,0,0,.011-.1l-.011-.011Z" transform="translate(-11.893 -2.867)" fill="#fff"/>
      <path id="Path_18526" data-name="Path 18526" d="M115.633,28.339v-.174a.388.388,0,0,0,.108-.289c0-.179-.09-.329-.2-.329s-.2.147-.2.329a.388.388,0,0,0,.108.289v.172l-.073.065a.069.069,0,0,0-.011.1l.011.011.1.08v.09h.139v-.09l.1-.09a.069.069,0,0,0,.011-.1l-.011-.011Z" transform="translate(-12.003 -2.867)" fill="#fff"/>
      <path id="Path_18527" data-name="Path 18527" d="M116.685,28.339v-.174a.388.388,0,0,0,.108-.289c0-.179-.09-.329-.2-.329s-.2.147-.2.329a.388.388,0,0,0,.108.289v.172l-.073.065a.069.069,0,0,0-.011.1l.011.011.1.08v.09h.139v-.09l.1-.09a.069.069,0,0,0,.011-.1l-.011-.011Z" transform="translate(-12.112 -2.867)" fill="#fff"/>
      <path id="Path_18528" data-name="Path 18528" d="M120,28.339v-.174a.388.388,0,0,0,.108-.289c0-.179-.09-.329-.2-.329s-.2.147-.2.329a.388.388,0,0,0,.108.289v.172l-.073.065a.069.069,0,0,0-.011.1l.011.011.1.08v.09h.139v-.09l.1-.09a.069.069,0,0,0,.011-.1l-.011-.011Z" transform="translate(-12.457 -2.867)" fill="#fff"/>
      <path id="Path_18529" data-name="Path 18529" d="M121.048,28.339v-.174a.388.388,0,0,0,.108-.289c0-.179-.09-.329-.2-.329s-.2.147-.2.329a.388.388,0,0,0,.108.289v.172l-.073.065a.069.069,0,0,0-.011.1l.011.011.1.08v.09h.138v-.09l.1-.09a.069.069,0,0,0,.011-.1l-.011-.011Z" transform="translate(-12.566 -2.867)" fill="#fff"/>
      <path id="Path_18530" data-name="Path 18530" d="M122.1,28.339v-.174a.388.388,0,0,0,.108-.289c0-.179-.09-.329-.2-.329s-.2.147-.2.329a.388.388,0,0,0,.108.289v.172l-.073.065a.069.069,0,0,0-.011.1l.011.011.1.08v.09h.139v-.09l.1-.09a.069.069,0,0,0,.011-.1l-.011-.011Z" transform="translate(-12.676 -2.867)" fill="#fff"/>
      <path id="Path_18531" data-name="Path 18531" d="M123.151,28.339v-.174a.388.388,0,0,0,.108-.289c0-.179-.09-.329-.2-.329s-.2.147-.2.329a.388.388,0,0,0,.108.289v.172l-.073.065a.069.069,0,0,0-.011.1l.011.011.1.08v.09h.139v-.09l.1-.09a.069.069,0,0,0,.011-.1l-.011-.011Z" transform="translate(-12.785 -2.867)" fill="#fff"/>
      <path id="Path_18532" data-name="Path 18532" d="M124.2,28.339v-.174a.388.388,0,0,0,.108-.289c0-.179-.09-.329-.2-.329s-.2.147-.2.329a.388.388,0,0,0,.108.289v.172l-.073.065a.069.069,0,0,0-.011.1l.011.011.1.08v.09h.139v-.09l.1-.09a.069.069,0,0,0,.011-.1l-.011-.011Z" transform="translate(-12.894 -2.867)" fill="#fff"/>
      <path id="Path_18533" data-name="Path 18533" d="M125.254,28.339v-.174a.388.388,0,0,0,.108-.289c0-.179-.09-.329-.2-.329s-.2.147-.2.329a.388.388,0,0,0,.108.289v.172l-.073.065a.069.069,0,0,0-.011.1l.011.011.1.08v.09h.139v-.09l.1-.09a.069.069,0,0,0,.011-.1l-.011-.011Z" transform="translate(-13.004 -2.867)" fill="#fff"/>
      <path id="Path_18534" data-name="Path 18534" d="M126.3,28.339v-.174a.388.388,0,0,0,.108-.289c0-.179-.09-.329-.2-.329s-.2.147-.2.329a.388.388,0,0,0,.108.289v.172l-.073.065a.069.069,0,0,0-.011.1l.011.011.1.08v.09h.139v-.09l.1-.09a.069.069,0,0,0,.011-.1l-.011-.011Z" transform="translate(-13.113 -2.867)" fill="#fff"/>
      <path id="Path_18535" data-name="Path 18535" d="M127.356,28.339v-.174a.388.388,0,0,0,.108-.289c0-.179-.09-.329-.2-.329s-.2.147-.2.329a.388.388,0,0,0,.108.289v.172l-.073.065a.069.069,0,0,0-.011.1l.011.011.1.08v.09h.139v-.09l.1-.09a.069.069,0,0,0,.011-.1l-.011-.011Z" transform="translate(-13.223 -2.867)" fill="#fff"/>
      <path id="Path_18536" data-name="Path 18536" d="M130.668,28.339v-.174a.388.388,0,0,0,.108-.289c0-.179-.09-.329-.2-.329s-.2.147-.2.329a.388.388,0,0,0,.108.289v.172l-.073.065a.069.069,0,0,0-.011.1l.011.011.1.08v.09h.139v-.09l.1-.09a.069.069,0,0,0,.011-.1l-.011-.011Z" transform="translate(-13.567 -2.867)" fill="#fff"/>
      <path id="Path_18537" data-name="Path 18537" d="M131.719,28.339v-.174a.388.388,0,0,0,.107-.289c0-.179-.09-.329-.2-.329s-.2.147-.2.329a.388.388,0,0,0,.108.289v.172l-.073.065a.069.069,0,0,0-.011.1l.011.011.1.08v.09h.138v-.09l.1-.09a.069.069,0,0,0,.011-.1l-.011-.011Z" transform="translate(-13.677 -2.867)" fill="#fff"/>
      <path id="Path_18538" data-name="Path 18538" d="M132.771,28.339v-.174a.388.388,0,0,0,.108-.289c0-.179-.09-.329-.2-.329s-.2.147-.2.329a.388.388,0,0,0,.108.289v.172l-.073.065a.069.069,0,0,0-.011.1l.011.011.1.08v.09h.139v-.09l.1-.09a.069.069,0,0,0,.011-.1l-.011-.011Z" transform="translate(-13.786 -2.867)" fill="#fff"/>
      <path id="Path_18539" data-name="Path 18539" d="M133.82,28.339v-.174a.388.388,0,0,0,.107-.289c0-.179-.09-.329-.2-.329s-.2.147-.2.329a.388.388,0,0,0,.108.289v.172l-.073.065a.069.069,0,0,0-.011.1l.011.011.1.08v.09h.139v-.09l.1-.09a.069.069,0,0,0,.011-.1l-.011-.011Z" transform="translate(-13.895 -2.867)" fill="#fff"/>
      <path id="Path_18540" data-name="Path 18540" d="M134.873,28.339v-.174a.388.388,0,0,0,.107-.289c0-.179-.09-.329-.2-.329s-.2.147-.2.329a.388.388,0,0,0,.108.289v.172l-.073.065a.069.069,0,0,0-.011.1l.011.011.1.08v.09h.139v-.09l.1-.09a.069.069,0,0,0,.011-.1l-.011-.011Z" transform="translate(-14.005 -2.867)" fill="#fff"/>
      <path id="Path_18541" data-name="Path 18541" d="M135.925,28.339v-.174a.388.388,0,0,0,.107-.289c0-.179-.09-.329-.2-.329s-.2.147-.2.329a.388.388,0,0,0,.108.289v.172l-.073.065a.069.069,0,0,0-.011.1l.011.011.1.08v.09h.139v-.09l.1-.09a.069.069,0,0,0,.011-.1L136,28.393Z" transform="translate(-14.114 -2.867)" fill="#fff"/>
      <path id="Path_18542" data-name="Path 18542" d="M136.976,28.339v-.174a.389.389,0,0,0,.108-.289c0-.179-.09-.329-.2-.329s-.2.147-.2.329a.388.388,0,0,0,.108.289v.172l-.073.065a.069.069,0,0,0-.011.1l.011.011.1.08v.09h.139v-.09l.1-.09a.069.069,0,0,0,.011-.1l-.011-.011Z" transform="translate(-14.224 -2.867)" fill="#fff"/>
      <path id="Path_18543" data-name="Path 18543" d="M138.027,28.339v-.174a.388.388,0,0,0,.107-.289c0-.179-.09-.329-.2-.329s-.2.147-.2.329a.388.388,0,0,0,.108.289v.172l-.073.065a.069.069,0,0,0-.011.1l.011.011.1.08v.09H138v-.09l.1-.09a.069.069,0,0,0,.011-.1l-.011-.011Z" transform="translate(-14.333 -2.867)" fill="#fff"/>
      <rect id="Rectangle_140051" data-name="Rectangle 140051" width="41.842" height="2.682" transform="translate(0.794 23.908)" fill="#282b47"/>
      <path id="Path_18544" data-name="Path 18544" d="M4.621,28.339v-.174a.388.388,0,0,0,.108-.289c0-.179-.09-.329-.2-.329s-.2.147-.2.329a.388.388,0,0,0,.108.289v.172l-.073.065a.069.069,0,0,0-.011.1l.011.011.1.08v.09h.138v-.09l.1-.09a.069.069,0,0,0,.011-.1l-.011-.011Z" transform="translate(-0.45 -2.867)" fill="#fff"/>
      <path id="Path_18545" data-name="Path 18545" d="M5.672,28.339v-.174a.388.388,0,0,0,.108-.289c0-.179-.09-.329-.2-.329s-.2.147-.2.329a.388.388,0,0,0,.108.289v.172L5.41,28.4a.069.069,0,0,0-.011.1l.011.011.1.08v.09h.139v-.09l.1-.09a.069.069,0,0,0,.011-.1l-.011-.011Z" transform="translate(-0.559 -2.867)" fill="#fff"/>
      <path id="Path_18546" data-name="Path 18546" d="M6.723,28.339v-.174a.388.388,0,0,0,.108-.289c0-.179-.09-.329-.2-.329s-.2.147-.2.329a.388.388,0,0,0,.108.289v.172l-.073.065a.069.069,0,0,0-.011.1l.011.011.1.08v.09H6.7v-.09l.1-.09a.069.069,0,0,0,.011-.1l-.011-.011Z" transform="translate(-0.669 -2.867)" fill="#fff"/>
      <path id="Path_18547" data-name="Path 18547" d="M7.775,28.339v-.174a.388.388,0,0,0,.108-.289c0-.179-.09-.329-.2-.329s-.2.147-.2.329a.388.388,0,0,0,.108.289v.172l-.073.065a.069.069,0,0,0-.011.1l.011.011.1.08v.09h.138v-.09l.1-.09a.069.069,0,0,0,.011-.1l-.011-.011Z" transform="translate(-0.778 -2.867)" fill="#fff"/>
      <path id="Path_18548" data-name="Path 18548" d="M8.823,28.339v-.174a.388.388,0,0,0,.108-.289c0-.179-.09-.329-.2-.329s-.2.147-.2.329a.388.388,0,0,0,.108.289v.172l-.073.065a.069.069,0,0,0-.011.1l.011.011.1.08v.09H8.8v-.09l.1-.09a.069.069,0,0,0,.011-.1l-.011-.011Z" transform="translate(-0.887 -2.867)" fill="#fff"/>
      <path id="Path_18549" data-name="Path 18549" d="M9.877,28.339v-.174a.388.388,0,0,0,.108-.289c0-.179-.09-.329-.2-.329s-.2.147-.2.329a.388.388,0,0,0,.108.289v.172l-.073.065a.069.069,0,0,0-.011.1l.011.011.1.08v.09H9.85v-.09l.1-.09a.069.069,0,0,0,.011-.1l-.011-.011Z" transform="translate(-0.997 -2.867)" fill="#fff"/>
      <path id="Path_18550" data-name="Path 18550" d="M10.928,28.339v-.174a.388.388,0,0,0,.108-.289c0-.179-.09-.329-.2-.329s-.2.147-.2.329a.388.388,0,0,0,.108.289v.172l-.073.065a.069.069,0,0,0-.011.1l.011.011.1.08v.09H10.9v-.09l.1-.09a.069.069,0,0,0,.011-.1L11,28.393Z" transform="translate(-1.106 -2.867)" fill="#fff"/>
      <path id="Path_18551" data-name="Path 18551" d="M11.98,28.339v-.174a.388.388,0,0,0,.108-.289c0-.179-.09-.329-.2-.329s-.2.147-.2.329a.388.388,0,0,0,.108.289v.172l-.073.065a.069.069,0,0,0-.011.1l.011.011.1.08v.09h.139v-.09l.1-.09a.069.069,0,0,0,.011-.1l-.011-.011Z" transform="translate(-1.216 -2.867)" fill="#fff"/>
      <path id="Path_18552" data-name="Path 18552" d="M15.292,28.339v-.174a.388.388,0,0,0,.108-.289c0-.179-.09-.329-.2-.329s-.2.147-.2.329a.388.388,0,0,0,.108.289v.172l-.073.065a.069.069,0,0,0-.011.1l.011.011.1.08v.09h.144v-.09l.1-.09a.069.069,0,0,0,.011-.1l-.011-.011Z" transform="translate(-1.561 -2.867)" fill="#fff"/>
      <path id="Path_18553" data-name="Path 18553" d="M16.343,28.339v-.174a.388.388,0,0,0,.108-.289c0-.179-.09-.329-.2-.329s-.2.147-.2.329a.388.388,0,0,0,.108.289v.172l-.073.065a.069.069,0,0,0-.011.1l.011.011.1.08v.09h.139v-.09l.1-.09a.069.069,0,0,0,.011-.1l-.011-.011Z" transform="translate(-1.67 -2.867)" fill="#fff"/>
      <path id="Path_18554" data-name="Path 18554" d="M17.4,28.339v-.174a.388.388,0,0,0,.108-.289c0-.179-.09-.329-.2-.329s-.2.147-.2.329a.388.388,0,0,0,.108.289v.172l-.073.065a.069.069,0,0,0-.011.1l.011.011.1.08v.09h.138v-.09l.1-.09a.069.069,0,0,0,.011-.1l-.011-.011Z" transform="translate(-1.78 -2.867)" fill="#fff"/>
      <path id="Path_18555" data-name="Path 18555" d="M18.446,28.339v-.174a.388.388,0,0,0,.108-.289c0-.179-.09-.329-.2-.329s-.2.147-.2.329a.388.388,0,0,0,.108.289v.172l-.073.065a.069.069,0,0,0-.011.1l.011.011.1.08v.09h.138v-.09l.1-.09a.069.069,0,0,0,.011-.1l-.011-.011Z" transform="translate(-1.889 -2.867)" fill="#fff"/>
      <path id="Path_18556" data-name="Path 18556" d="M19.5,28.339v-.174a.388.388,0,0,0,.108-.289c0-.179-.09-.329-.2-.329s-.2.147-.2.329a.388.388,0,0,0,.108.289v.172l-.073.065a.069.069,0,0,0-.011.1l.011.011.1.08v.09h.139v-.09l.1-.09a.069.069,0,0,0,.011-.1l-.011-.011Z" transform="translate(-1.998 -2.867)" fill="#fff"/>
      <path id="Path_18557" data-name="Path 18557" d="M20.548,28.339v-.174a.388.388,0,0,0,.108-.289c0-.179-.09-.329-.2-.329s-.2.147-.2.329a.388.388,0,0,0,.108.289v.172l-.073.065a.069.069,0,0,0-.011.1l.011.011.1.08v.09h.139v-.09l.1-.09a.069.069,0,0,0,.011-.1l-.011-.011Z" transform="translate(-2.108 -2.867)" fill="#fff"/>
      <path id="Path_18558" data-name="Path 18558" d="M21.6,28.339v-.174a.388.388,0,0,0,.108-.289c0-.179-.09-.329-.2-.329s-.2.147-.2.329a.388.388,0,0,0,.108.289v.172l-.073.065a.069.069,0,0,0-.011.1l.011.011.1.08v.09h.138v-.09l.1-.09a.069.069,0,0,0,.011-.1l-.011-.011Z" transform="translate(-2.217 -2.867)" fill="#fff"/>
      <path id="Path_18559" data-name="Path 18559" d="M22.651,28.339v-.174a.388.388,0,0,0,.108-.289c0-.179-.09-.329-.2-.329s-.2.147-.2.329a.388.388,0,0,0,.108.289v.172l-.073.065a.069.069,0,0,0-.011.1l.011.011.1.08v.09h.139v-.09l.1-.09a.069.069,0,0,0,.011-.1l-.011-.011Z" transform="translate(-2.326 -2.867)" fill="#fff"/>
      <path id="Path_18560" data-name="Path 18560" d="M25.963,28.339v-.174a.388.388,0,0,0,.108-.289c0-.179-.09-.329-.2-.329s-.2.147-.2.329a.388.388,0,0,0,.108.289v.172L25.7,28.4a.069.069,0,0,0-.011.1l.011.011.1.08v.09h.139v-.09l.1-.09a.069.069,0,0,0,.011-.1l-.011-.011Z" transform="translate(-2.671 -2.867)" fill="#fff"/>
      <path id="Path_18561" data-name="Path 18561" d="M27.014,28.339v-.174a.388.388,0,0,0,.108-.289c0-.179-.09-.329-.2-.329s-.2.147-.2.329a.388.388,0,0,0,.108.289v.172l-.073.065a.069.069,0,0,0-.011.1l.011.011.1.08v.09h.141v-.09l.1-.09a.069.069,0,0,0,.011-.1l-.011-.011Z" transform="translate(-2.78 -2.867)" fill="#fff"/>
      <path id="Path_18562" data-name="Path 18562" d="M28.066,28.339v-.174a.388.388,0,0,0,.108-.289c0-.179-.09-.329-.2-.329s-.2.147-.2.329a.388.388,0,0,0,.108.289v.172L27.8,28.4a.069.069,0,0,0-.011.1l.011.011.1.08v.09h.138v-.09l.1-.09a.069.069,0,0,0,.011-.1l-.011-.011Z" transform="translate(-2.89 -2.867)" fill="#fff"/>
      <path id="Path_18563" data-name="Path 18563" d="M29.116,28.339v-.174a.389.389,0,0,0,.108-.289c0-.179-.09-.329-.2-.329s-.2.147-.2.329a.385.385,0,0,0,.108.289v.172l-.073.065a.069.069,0,0,0-.011.1l.011.011.1.08v.09h.138v-.09l.1-.09a.069.069,0,0,0,.011-.1l-.011-.011Z" transform="translate(-2.999 -2.867)" fill="#fff"/>
      <path id="Path_18564" data-name="Path 18564" d="M30.168,28.339v-.174a.388.388,0,0,0,.108-.289c0-.179-.09-.329-.2-.329s-.2.147-.2.329a.388.388,0,0,0,.108.289v.172l-.073.065a.069.069,0,0,0-.011.1l.011.011.1.08v.09h.139v-.09l.1-.09a.069.069,0,0,0,.011-.1l-.011-.011Z" transform="translate(-3.109 -2.867)" fill="#fff"/>
      <path id="Path_18565" data-name="Path 18565" d="M31.22,28.339v-.174a.388.388,0,0,0,.108-.289c0-.179-.09-.329-.2-.329s-.2.147-.2.329a.388.388,0,0,0,.108.289v.172l-.073.065a.069.069,0,0,0-.011.1l.011.011.1.08v.09h.139v-.09l.1-.09a.069.069,0,0,0,.011-.1l-.011-.011Z" transform="translate(-3.218 -2.867)" fill="#fff"/>
      <path id="Path_18566" data-name="Path 18566" d="M32.271,28.339v-.174a.388.388,0,0,0,.108-.289c0-.179-.09-.329-.2-.329s-.2.147-.2.329a.388.388,0,0,0,.108.289v.172l-.073.065a.069.069,0,0,0-.011.1l.011.011.1.08v.09h.138v-.09l.1-.09a.069.069,0,0,0,.011-.1l-.011-.011Z" transform="translate(-3.327 -2.867)" fill="#fff"/>
      <path id="Path_18567" data-name="Path 18567" d="M33.323,28.339v-.174a.388.388,0,0,0,.108-.289c0-.179-.09-.329-.2-.329s-.2.147-.2.329a.388.388,0,0,0,.108.289v.172l-.073.065a.069.069,0,0,0-.011.1l.011.011.1.08v.09H33.3v-.09l.1-.09a.069.069,0,0,0,.011-.1l-.011-.011Z" transform="translate(-3.437 -2.867)" fill="#fff"/>
      <path id="Path_18568" data-name="Path 18568" d="M36.634,28.339v-.174a.388.388,0,0,0,.108-.289c0-.179-.09-.329-.2-.329s-.2.147-.2.329a.388.388,0,0,0,.108.289v.172l-.073.065a.069.069,0,0,0-.011.1l.011.011.1.08v.09h.139v-.09l.1-.09a.069.069,0,0,0,.011-.1l-.011-.011Z" transform="translate(-3.782 -2.867)" fill="#fff"/>
      <path id="Path_18569" data-name="Path 18569" d="M37.69,28.339v-.174a.388.388,0,0,0,.108-.289c0-.179-.09-.329-.2-.329s-.2.147-.2.329a.388.388,0,0,0,.108.289v.172l-.073.065a.069.069,0,0,0-.011.1l.011.011.1.08v.09h.139v-.09l.1-.09a.069.069,0,0,0,.011-.1l-.011-.011Z" transform="translate(-3.891 -2.867)" fill="#fff"/>
      <path id="Path_18570" data-name="Path 18570" d="M38.737,28.339v-.174a.388.388,0,0,0,.108-.289c0-.179-.09-.329-.2-.329s-.2.147-.2.329a.388.388,0,0,0,.108.289v.172l-.073.065a.069.069,0,0,0-.011.1l.011.011.1.08v.09h.138v-.09l.1-.09a.069.069,0,0,0,.011-.1l-.011-.011Z" transform="translate(-4 -2.867)" fill="#fff"/>
      <path id="Path_18571" data-name="Path 18571" d="M39.789,28.339v-.174a.388.388,0,0,0,.108-.289c0-.179-.09-.329-.2-.329s-.2.147-.2.329a.388.388,0,0,0,.108.289v.172l-.073.065a.069.069,0,0,0-.011.1l.011.011.1.08v.09h.139v-.09l.1-.09a.069.069,0,0,0,.011-.1l-.011-.011Z" transform="translate(-4.11 -2.867)" fill="#fff"/>
      <path id="Path_18572" data-name="Path 18572" d="M40.84,28.339v-.174a.388.388,0,0,0,.108-.289c0-.179-.09-.329-.2-.329s-.2.147-.2.329a.388.388,0,0,0,.108.289v.172l-.073.065a.069.069,0,0,0-.011.1l.011.011.1.08v.09h.139v-.09l.1-.09a.069.069,0,0,0,.011-.1l-.011-.011Z" transform="translate(-4.219 -2.867)" fill="#fff"/>
      <path id="Path_18573" data-name="Path 18573" d="M41.891,28.339v-.174A.388.388,0,0,0,42,27.876c0-.179-.09-.329-.2-.329s-.2.147-.2.329a.388.388,0,0,0,.108.289v.172l-.073.065a.069.069,0,0,0-.011.1l.011.011.1.08v.09h.138v-.09l.1-.09a.069.069,0,0,0,.011-.1l-.011-.011Z" transform="translate(-4.329 -2.867)" fill="#fff"/>
      <path id="Path_18574" data-name="Path 18574" d="M42.943,28.339v-.174a.388.388,0,0,0,.108-.289c0-.179-.09-.329-.2-.329s-.2.147-.2.329a.388.388,0,0,0,.108.289v.172l-.073.065a.069.069,0,0,0-.011.1l.011.011.1.08v.09h.138v-.09l.1-.09a.069.069,0,0,0,.011-.1l-.011-.011Z" transform="translate(-4.438 -2.867)" fill="#fff"/>
      <path id="Path_18575" data-name="Path 18575" d="M43.994,28.339v-.174a.388.388,0,0,0,.108-.289c0-.179-.09-.329-.2-.329s-.2.147-.2.329a.388.388,0,0,0,.108.289v.172l-.073.065a.069.069,0,0,0-.011.1l.011.011.1.08v.09h.139v-.09l.1-.09a.069.069,0,0,0,.011-.1l-.011-.011Z" transform="translate(-4.547 -2.867)" fill="#fff"/>
      <path id="Path_18622" data-name="Path 18622" d="M0,0H126.866V36.127H0Z" transform="translate(0.794 26.589)" fill="#282b47"/>
      <path id="Path_18576" data-name="Path 18576" d="M71.266,13.788a.146.146,0,0,1-.147-.147V.147a.147.147,0,1,1,.294,0V13.641a.146.146,0,0,1-.147.147" transform="translate(-7.401)" fill="#282b47"/>
      <path id="Path_18577" data-name="Path 18577" d="M76.248,3.827c-1.655-.688-3.315.688-4.965,0V1.185c1.655.688,3.315-.688,4.965,0Z" transform="translate(-7.418 -0.103)" fill="#282b47"/>
      <rect id="Rectangle_140053" data-name="Rectangle 140053" width="43.182" height="9.225" transform="translate(42.274 17.363)" fill="#282b47"/>
      <path id="Path_18578" data-name="Path 18578" d="M74.271,54.669a3.128,3.128,0,0,0,.033-.439,3.42,3.42,0,0,0-6.835,0,3.127,3.127,0,0,0,.034.439Z" transform="translate(-7.021 -5.301)" fill="#fff"/>
      <path id="Path_18579" data-name="Path 18579" d="M73.211,54.353a2.139,2.139,0,0,0,.021-.283,2.207,2.207,0,0,0-4.412,0,2.139,2.139,0,0,0,.021.283Z" transform="translate(-7.162 -5.404)" fill="#282b47"/>
      <path id="Path_18580" data-name="Path 18580" d="M71.22,54.63a.545.545,0,1,1,.545-.545.544.544,0,0,1-.545.545m0-.869a.324.324,0,1,0,.324.324.324.324,0,0,0-.324-.324" transform="translate(-7.355 -5.572)" fill="#fff"/>
      <rect id="Rectangle_140054" data-name="Rectangle 140054" width="0.22" height="1.656" transform="translate(62.837 46.697) rotate(-25.734)" fill="#fff"/>
      <rect id="Rectangle_140055" data-name="Rectangle 140055" width="1.6" height="0.22" transform="translate(63.981 48.083) rotate(-64.282)" fill="#fff"/>
      <path id="Path_18581" data-name="Path 18581" d="M68.893,53.491l.078-.206,1.646.619-.078.206Z" transform="translate(-7.17 -5.545)" fill="#fff"/>
      <path id="Path_18582" data-name="Path 18582" d="M71.749,53.9l1.646-.619.078.206-1.646.619Z" transform="translate(-7.467 -5.545)" fill="#fff"/>
      <path id="Path_18583" data-name="Path 18583" d="M74.941,55.1H66.66a.014.014,0,0,0-.014.013l0,.01.471.516v9.643H74.48V55.64l.471-.516a.013.013,0,0,0,0-.019l-.01,0" transform="translate(-6.936 -5.734)" fill="#fff"/>
      <rect id="Rectangle_140056" data-name="Rectangle 140056" width="4.84" height="8.443" transform="translate(61.445 50.885)" fill="#282b47"/>
      <rect id="Rectangle_140057" data-name="Rectangle 140057" width="4.911" height="0.441" transform="translate(61.408 52.514)" fill="#fff"/>
      <rect id="Rectangle_140058" data-name="Rectangle 140058" width="0.283" height="6.986" transform="translate(63.723 52.563)" fill="#fff"/>
      <path id="Path_18584" data-name="Path 18584" d="M71.74,63.771H70.692a.032.032,0,0,1-.032-.032v-1.39a.032.032,0,0,1,.032-.032h1.044a.032.032,0,0,1,.032.032v1.393a.032.032,0,0,1-.032.032" transform="translate(-7.353 -6.485)" fill="#fff"/>
      <path id="Path_18585" data-name="Path 18585" d="M37.188,20.487v.622h.375v5.054h3.431V21.11h.374v-.622Z" transform="translate(-3.87 -2.132)" fill="#282b47"/>
      <path id="Path_18586" data-name="Path 18586" d="M100.426,20.35v.622h.374v5.054h3.431V20.972h.375V20.35Z" transform="translate(-10.451 -2.118)" fill="#282b47"/>
      <path id="Path_18587" data-name="Path 18587" d="M133.723,24.733v.529h.358v1.217h2.732V25.265h.358v-.532Z" transform="translate(-13.916 -2.574)" fill="#282b47"/>
      <path id="Path_18588" data-name="Path 18588" d="M4.991,24.733v.529h.358v1.217H8.081V25.265h.358v-.532Z" transform="translate(-0.519 -2.574)" fill="#282b47"/>
      <rect id="Rectangle_140059" data-name="Rectangle 140059" width="42.759" height="4.375" transform="translate(42.636 23.344)" fill="#004594"/>
      <path id="Path_18589" data-name="Path 18589" d="M11.028,38.249V37.137H5.488v1.112h.317v5.7H5.488v1.112h5.54V43.946h-.317v-5.7Z" transform="translate(-0.571 -3.865)" fill="#fff"/>
      <rect id="Rectangle_140060" data-name="Rectangle 140060" width="3.72" height="6.263" transform="translate(5.826 34.1)" fill="#282b47"/>
      <rect id="Rectangle_140061" data-name="Rectangle 140061" width="0.22" height="6.281" transform="translate(6.956 34.095)" fill="#fff"/>
      <rect id="Rectangle_140062" data-name="Rectangle 140062" width="0.22" height="6.281" transform="translate(8.196 34.095)" fill="#fff"/>
      <rect id="Rectangle_140063" data-name="Rectangle 140063" width="3.788" height="0.22" transform="translate(5.79 35.556)" fill="#fff"/>
      <rect id="Rectangle_140064" data-name="Rectangle 140064" width="3.766" height="0.22" transform="translate(5.812 37.121)" fill="#fff"/>
      <rect id="Rectangle_140065" data-name="Rectangle 140065" width="3.766" height="0.22" transform="translate(5.812 38.687)" fill="#fff"/>
      <path id="Path_18590" data-name="Path 18590" d="M11.494,51.354c-.25-.979-1.629-1.729-3.3-1.729s-3.046.75-3.3,1.729Z" transform="translate(-0.51 -5.164)" fill="#fff"/>
      <rect id="Rectangle_140066" data-name="Rectangle 140066" width="5.327" height="11.219" transform="translate(5.023 46.189)" fill="#fff"/>
      <rect id="Rectangle_140067" data-name="Rectangle 140067" width="3.72" height="9.155" transform="translate(5.826 47.221)" fill="#282b47"/>
      <rect id="Rectangle_140068" data-name="Rectangle 140068" width="0.22" height="9.238" transform="translate(6.956 47.157)" fill="#fff"/>
      <rect id="Rectangle_140069" data-name="Rectangle 140069" width="0.22" height="9.238" transform="translate(8.196 47.157)" fill="#fff"/>
      <rect id="Rectangle_140070" data-name="Rectangle 140070" width="3.866" height="0.221" transform="translate(5.804 48.941)" fill="#fff"/>
      <rect id="Rectangle_140071" data-name="Rectangle 140071" width="3.866" height="0.221" transform="translate(5.804 50.773)" fill="#fff"/>
      <rect id="Rectangle_140072" data-name="Rectangle 140072" width="3.866" height="0.221" transform="translate(5.804 52.604)" fill="#fff"/>
      <rect id="Rectangle_140073" data-name="Rectangle 140073" width="3.903" height="0.221" transform="translate(5.767 54.434)" fill="#fff"/>
      <path id="Path_18591" data-name="Path 18591" d="M19.43,49.625l-3.448,1.729h6.9Z" transform="translate(-1.663 -5.164)" fill="#fff"/>
      <rect id="Rectangle_140074" data-name="Rectangle 140074" width="5.327" height="11.219" transform="translate(15.104 46.189)" fill="#fff"/>
      <rect id="Rectangle_140075" data-name="Rectangle 140075" width="3.72" height="9.155" transform="translate(15.907 47.221)" fill="#282b47"/>
      <rect id="Rectangle_140076" data-name="Rectangle 140076" width="0.22" height="9.238" transform="translate(17.037 47.157)" fill="#fff"/>
      <rect id="Rectangle_140077" data-name="Rectangle 140077" width="0.22" height="9.238" transform="translate(18.277 47.157)" fill="#fff"/>
      <rect id="Rectangle_140078" data-name="Rectangle 140078" width="3.866" height="0.221" transform="translate(15.885 48.941)" fill="#fff"/>
      <rect id="Rectangle_140079" data-name="Rectangle 140079" width="3.866" height="0.221" transform="translate(15.885 50.773)" fill="#fff"/>
      <rect id="Rectangle_140080" data-name="Rectangle 140080" width="3.866" height="0.221" transform="translate(15.885 52.604)" fill="#fff"/>
      <rect id="Rectangle_140081" data-name="Rectangle 140081" width="3.903" height="0.221" transform="translate(15.849 54.434)" fill="#fff"/>
      <path id="Path_18592" data-name="Path 18592" d="M34,51.354c-.25-.979-1.629-1.729-3.3-1.729s-3.046.75-3.3,1.729Z" transform="translate(-2.852 -5.164)" fill="#fff"/>
      <rect id="Rectangle_140082" data-name="Rectangle 140082" width="5.327" height="11.219" transform="translate(25.185 46.189)" fill="#fff"/>
      <rect id="Rectangle_140083" data-name="Rectangle 140083" width="3.72" height="9.155" transform="translate(25.988 47.221)" fill="#282b47"/>
      <rect id="Rectangle_140084" data-name="Rectangle 140084" width="0.22" height="9.238" transform="translate(27.118 47.157)" fill="#fff"/>
      <rect id="Rectangle_140085" data-name="Rectangle 140085" width="0.22" height="9.238" transform="translate(28.358 47.157)" fill="#fff"/>
      <rect id="Rectangle_140086" data-name="Rectangle 140086" width="3.866" height="0.221" transform="translate(25.966 48.941)" fill="#fff"/>
      <rect id="Rectangle_140087" data-name="Rectangle 140087" width="3.866" height="0.221" transform="translate(25.966 50.773)" fill="#fff"/>
      <rect id="Rectangle_140088" data-name="Rectangle 140088" width="3.866" height="0.221" transform="translate(25.966 52.604)" fill="#fff"/>
      <rect id="Rectangle_140089" data-name="Rectangle 140089" width="3.903" height="0.221" transform="translate(25.93 54.434)" fill="#fff"/>
      <path id="Path_18593" data-name="Path 18593" d="M41.935,49.625l-3.448,1.729h6.9Z" transform="translate(-4.005 -5.164)" fill="#fff"/>
      <rect id="Rectangle_140090" data-name="Rectangle 140090" width="5.327" height="11.219" transform="translate(35.266 46.189)" fill="#fff"/>
      <rect id="Rectangle_140091" data-name="Rectangle 140091" width="3.72" height="9.155" transform="translate(36.069 47.221)" fill="#282b47"/>
      <rect id="Rectangle_140092" data-name="Rectangle 140092" width="0.22" height="9.238" transform="translate(37.199 47.157)" fill="#fff"/>
      <rect id="Rectangle_140093" data-name="Rectangle 140093" width="0.22" height="9.238" transform="translate(38.439 47.157)" fill="#fff"/>
      <rect id="Rectangle_140094" data-name="Rectangle 140094" width="3.867" height="0.221" transform="translate(36.047 48.941)" fill="#fff"/>
      <rect id="Rectangle_140095" data-name="Rectangle 140095" width="3.867" height="0.221" transform="translate(36.047 50.773)" fill="#fff"/>
      <rect id="Rectangle_140096" data-name="Rectangle 140096" width="3.867" height="0.221" transform="translate(36.047 52.604)" fill="#fff"/>
      <rect id="Rectangle_140097" data-name="Rectangle 140097" width="3.903" height="0.221" transform="translate(36.011 54.434)" fill="#fff"/>
      <path id="Path_18594" data-name="Path 18594" d="M22.279,38.249V37.137h-5.54v1.112h.317v5.7h-.317v1.112h5.539V43.946H21.96v-5.7Z" transform="translate(-1.742 -3.865)" fill="#fff"/>
      <rect id="Rectangle_140098" data-name="Rectangle 140098" width="3.72" height="6.263" transform="translate(15.907 34.1)" fill="#282b47"/>
      <rect id="Rectangle_140099" data-name="Rectangle 140099" width="0.22" height="6.281" transform="translate(17.037 34.095)" fill="#fff"/>
      <rect id="Rectangle_140100" data-name="Rectangle 140100" width="0.22" height="6.281" transform="translate(18.277 34.095)" fill="#fff"/>
      <rect id="Rectangle_140101" data-name="Rectangle 140101" width="3.788" height="0.22" transform="translate(15.871 35.556)" fill="#fff"/>
      <rect id="Rectangle_140102" data-name="Rectangle 140102" width="3.766" height="0.22" transform="translate(15.894 37.121)" fill="#fff"/>
      <rect id="Rectangle_140103" data-name="Rectangle 140103" width="3.766" height="0.22" transform="translate(15.894 38.687)" fill="#fff"/>
      <path id="Path_18595" data-name="Path 18595" d="M33.532,38.249V37.137h-5.54v1.112h.317v5.7h-.317v1.112h5.54V43.946h-.317v-5.7Z" transform="translate(-2.913 -3.865)" fill="#fff"/>
      <rect id="Rectangle_140104" data-name="Rectangle 140104" width="3.72" height="6.263" transform="translate(25.988 34.1)" fill="#282b47"/>
      <rect id="Rectangle_140105" data-name="Rectangle 140105" width="0.22" height="6.281" transform="translate(27.118 34.095)" fill="#fff"/>
      <rect id="Rectangle_140106" data-name="Rectangle 140106" width="0.22" height="6.281" transform="translate(28.358 34.095)" fill="#fff"/>
      <rect id="Rectangle_140107" data-name="Rectangle 140107" width="3.788" height="0.22" transform="translate(25.952 35.556)" fill="#fff"/>
      <rect id="Rectangle_140108" data-name="Rectangle 140108" width="3.766" height="0.22" transform="translate(25.975 37.121)" fill="#fff"/>
      <rect id="Rectangle_140109" data-name="Rectangle 140109" width="3.766" height="0.22" transform="translate(25.975 38.687)" fill="#fff"/>
      <path id="Path_18596" data-name="Path 18596" d="M44.783,38.249V37.137H39.244v1.112h.317v5.7h-.317v1.112h5.539V43.946h-.317v-5.7Z" transform="translate(-4.084 -3.865)" fill="#fff"/>
      <rect id="Rectangle_140110" data-name="Rectangle 140110" width="3.72" height="6.263" transform="translate(36.069 34.1)" fill="#282b47"/>
      <rect id="Rectangle_140111" data-name="Rectangle 140111" width="0.22" height="6.281" transform="translate(37.199 34.095)" fill="#fff"/>
      <rect id="Rectangle_140112" data-name="Rectangle 140112" width="0.22" height="6.281" transform="translate(38.439 34.095)" fill="#fff"/>
      <rect id="Rectangle_140113" data-name="Rectangle 140113" width="3.788" height="0.22" transform="translate(36.034 35.556)" fill="#fff"/>
      <rect id="Rectangle_140114" data-name="Rectangle 140114" width="3.766" height="0.22" transform="translate(36.056 37.121)" fill="#fff"/>
      <rect id="Rectangle_140115" data-name="Rectangle 140115" width="3.766" height="0.22" transform="translate(36.056 38.687)" fill="#fff"/>
      <path id="Path_18597" data-name="Path 18597" d="M102.679,38.249V37.137H97.14v1.112h.317v5.7H97.14v1.112h5.539V43.946h-.317v-5.7Z" transform="translate(-10.109 -3.865)" fill="#fff"/>
      <rect id="Rectangle_140116" data-name="Rectangle 140116" width="3.72" height="6.263" transform="translate(87.94 34.1)" fill="#282b47"/>
      <rect id="Rectangle_140117" data-name="Rectangle 140117" width="0.22" height="6.281" transform="translate(89.07 34.095)" fill="#fff"/>
      <rect id="Rectangle_140118" data-name="Rectangle 140118" width="0.22" height="6.281" transform="translate(90.31 34.095)" fill="#fff"/>
      <rect id="Rectangle_140119" data-name="Rectangle 140119" width="3.788" height="0.22" transform="translate(87.904 35.556)" fill="#fff"/>
      <rect id="Rectangle_140120" data-name="Rectangle 140120" width="3.766" height="0.22" transform="translate(87.927 37.121)" fill="#fff"/>
      <rect id="Rectangle_140121" data-name="Rectangle 140121" width="3.766" height="0.22" transform="translate(87.927 38.687)" fill="#fff"/>
      <path id="Path_18598" data-name="Path 18598" d="M113.931,38.249V37.137H108.39v1.112h.317v5.7h-.317v1.112h5.539V43.946h-.317v-5.7Z" transform="translate(-11.28 -3.865)" fill="#fff"/>
      <rect id="Rectangle_140122" data-name="Rectangle 140122" width="3.72" height="6.263" transform="translate(98.021 34.1)" fill="#282b47"/>
      <rect id="Rectangle_140123" data-name="Rectangle 140123" width="0.22" height="6.281" transform="translate(99.151 34.095)" fill="#fff"/>
      <rect id="Rectangle_140124" data-name="Rectangle 140124" width="0.22" height="6.281" transform="translate(100.391 34.095)" fill="#fff"/>
      <rect id="Rectangle_140125" data-name="Rectangle 140125" width="3.788" height="0.22" transform="translate(97.985 35.556)" fill="#fff"/>
      <rect id="Rectangle_140126" data-name="Rectangle 140126" width="3.766" height="0.22" transform="translate(98.008 37.121)" fill="#fff"/>
      <rect id="Rectangle_140127" data-name="Rectangle 140127" width="3.766" height="0.22" transform="translate(98.008 38.687)" fill="#fff"/>
      <path id="Path_18599" data-name="Path 18599" d="M125.188,38.249V37.137h-5.539v1.112h.317v5.7h-.317v1.112h5.539V43.946h-.317v-5.7Z" transform="translate(-12.452 -3.865)" fill="#fff"/>
      <rect id="Rectangle_140128" data-name="Rectangle 140128" width="3.72" height="6.263" transform="translate(108.102 34.1)" fill="#282b47"/>
      <rect id="Rectangle_140129" data-name="Rectangle 140129" width="0.22" height="6.281" transform="translate(109.232 34.095)" fill="#fff"/>
      <rect id="Rectangle_140130" data-name="Rectangle 140130" width="0.22" height="6.281" transform="translate(110.473 34.095)" fill="#fff"/>
      <rect id="Rectangle_140131" data-name="Rectangle 140131" width="3.788" height="0.22" transform="translate(108.067 35.556)" fill="#fff"/>
      <rect id="Rectangle_140132" data-name="Rectangle 140132" width="3.766" height="0.22" transform="translate(108.089 37.121)" fill="#fff"/>
      <rect id="Rectangle_140133" data-name="Rectangle 140133" width="3.766" height="0.22" transform="translate(108.089 38.687)" fill="#fff"/>
      <path id="Path_18600" data-name="Path 18600" d="M136.436,38.249V37.137H130.9v1.112h.317v5.7H130.9v1.112h5.539V43.946h-.317v-5.7Z" transform="translate(-13.622 -3.865)" fill="#fff"/>
      <rect id="Rectangle_140134" data-name="Rectangle 140134" width="3.72" height="6.263" transform="translate(118.184 34.1)" fill="#282b47"/>
      <rect id="Rectangle_140135" data-name="Rectangle 140135" width="0.22" height="6.281" transform="translate(119.314 34.095)" fill="#fff"/>
      <rect id="Rectangle_140136" data-name="Rectangle 140136" width="0.22" height="6.281" transform="translate(120.554 34.095)" fill="#fff"/>
      <rect id="Rectangle_140137" data-name="Rectangle 140137" width="3.788" height="0.22" transform="translate(118.148 35.556)" fill="#fff"/>
      <rect id="Rectangle_140138" data-name="Rectangle 140138" width="3.766" height="0.22" transform="translate(118.17 37.121)" fill="#fff"/>
      <rect id="Rectangle_140139" data-name="Rectangle 140139" width="3.766" height="0.22" transform="translate(118.17 38.687)" fill="#fff"/>
      <path id="Path_18601" data-name="Path 18601" d="M130.306,51.341c.25-.979,1.629-1.729,3.3-1.729s3.046.75,3.3,1.729Z" transform="translate(-13.561 -5.163)" fill="#fff"/>
      <rect id="Rectangle_140140" data-name="Rectangle 140140" width="5.327" height="11.219" transform="translate(117.381 46.178)" fill="#fff"/>
      <rect id="Rectangle_140141" data-name="Rectangle 140141" width="3.72" height="9.155" transform="translate(118.184 47.21)" fill="#282b47"/>
      <rect id="Rectangle_140142" data-name="Rectangle 140142" width="0.22" height="9.238" transform="translate(120.553 47.146)" fill="#fff"/>
      <rect id="Rectangle_140143" data-name="Rectangle 140143" width="0.22" height="9.238" transform="translate(119.313 47.146)" fill="#fff"/>
      <rect id="Rectangle_140144" data-name="Rectangle 140144" width="3.867" height="0.221" transform="translate(118.06 48.93)" fill="#fff"/>
      <rect id="Rectangle_140145" data-name="Rectangle 140145" width="3.867" height="0.221" transform="translate(118.06 50.761)" fill="#fff"/>
      <rect id="Rectangle_140146" data-name="Rectangle 140146" width="3.867" height="0.221" transform="translate(118.06 52.592)" fill="#fff"/>
      <rect id="Rectangle_140147" data-name="Rectangle 140147" width="3.903" height="0.221" transform="translate(118.06 54.423)" fill="#fff"/>
      <path id="Path_18602" data-name="Path 18602" d="M122.334,49.612l3.448,1.729h-6.9Z" transform="translate(-12.372 -5.163)" fill="#fff"/>
      <rect id="Rectangle_140148" data-name="Rectangle 140148" width="5.327" height="11.219" transform="translate(107.3 46.178)" fill="#fff"/>
      <rect id="Rectangle_140149" data-name="Rectangle 140149" width="3.72" height="9.155" transform="translate(108.102 47.21)" fill="#282b47"/>
      <rect id="Rectangle_140150" data-name="Rectangle 140150" width="0.22" height="9.238" transform="translate(110.473 47.146)" fill="#fff"/>
      <rect id="Rectangle_140151" data-name="Rectangle 140151" width="0.22" height="9.238" transform="translate(109.232 47.146)" fill="#fff"/>
      <rect id="Rectangle_140152" data-name="Rectangle 140152" width="3.866" height="0.221" transform="translate(107.979 48.93)" fill="#fff"/>
      <rect id="Rectangle_140153" data-name="Rectangle 140153" width="3.866" height="0.221" transform="translate(107.979 50.761)" fill="#fff"/>
      <rect id="Rectangle_140154" data-name="Rectangle 140154" width="3.866" height="0.221" transform="translate(107.979 52.592)" fill="#fff"/>
      <rect id="Rectangle_140155" data-name="Rectangle 140155" width="3.903" height="0.221" transform="translate(107.979 54.423)" fill="#fff"/>
      <path id="Path_18603" data-name="Path 18603" d="M107.8,51.341c.25-.979,1.629-1.729,3.3-1.729s3.046.75,3.3,1.729Z" transform="translate(-11.219 -5.163)" fill="#fff"/>
      <rect id="Rectangle_140156" data-name="Rectangle 140156" width="5.327" height="11.219" transform="translate(97.218 46.178)" fill="#fff"/>
      <rect id="Rectangle_140157" data-name="Rectangle 140157" width="3.72" height="9.155" transform="translate(98.021 47.21)" fill="#282b47"/>
      <rect id="Rectangle_140158" data-name="Rectangle 140158" width="0.22" height="9.238" transform="translate(100.391 47.146)" fill="#fff"/>
      <rect id="Rectangle_140159" data-name="Rectangle 140159" width="0.22" height="9.238" transform="translate(99.151 47.146)" fill="#fff"/>
      <rect id="Rectangle_140160" data-name="Rectangle 140160" width="3.866" height="0.221" transform="translate(97.898 48.93)" fill="#fff"/>
      <rect id="Rectangle_140161" data-name="Rectangle 140161" width="3.866" height="0.221" transform="translate(97.898 50.761)" fill="#fff"/>
      <rect id="Rectangle_140162" data-name="Rectangle 140162" width="3.866" height="0.221" transform="translate(97.898 52.592)" fill="#fff"/>
      <rect id="Rectangle_140163" data-name="Rectangle 140163" width="3.903" height="0.221" transform="translate(97.898 54.423)" fill="#fff"/>
      <path id="Path_18604" data-name="Path 18604" d="M99.831,49.612l3.448,1.729h-6.9Z" transform="translate(-10.03 -5.163)" fill="#fff"/>
      <rect id="Rectangle_140164" data-name="Rectangle 140164" width="5.327" height="11.219" transform="translate(87.137 46.178)" fill="#fff"/>
      <rect id="Rectangle_140165" data-name="Rectangle 140165" width="3.72" height="9.155" transform="translate(87.94 47.21)" fill="#282b47"/>
      <rect id="Rectangle_140166" data-name="Rectangle 140166" width="0.22" height="9.238" transform="translate(90.31 47.146)" fill="#fff"/>
      <rect id="Rectangle_140167" data-name="Rectangle 140167" width="0.22" height="9.238" transform="translate(89.07 47.146)" fill="#fff"/>
      <rect id="Rectangle_140168" data-name="Rectangle 140168" width="3.866" height="0.221" transform="translate(87.816 48.93)" fill="#fff"/>
      <rect id="Rectangle_140169" data-name="Rectangle 140169" width="3.866" height="0.221" transform="translate(87.816 50.761)" fill="#fff"/>
      <rect id="Rectangle_140170" data-name="Rectangle 140170" width="3.866" height="0.221" transform="translate(87.816 52.592)" fill="#fff"/>
      <rect id="Rectangle_140171" data-name="Rectangle 140171" width="3.903" height="0.221" transform="translate(87.816 54.423)" fill="#fff"/>
      <path id="Path_18605" data-name="Path 18605" d="M59.2,38.249V37.137H53.666v1.112h.317v5.7h-.317v1.112H59.2V43.946h-.317v-5.7Z" transform="translate(-5.585 -3.865)" fill="#fff"/>
      <rect id="Rectangle_140172" data-name="Rectangle 140172" width="3.72" height="6.263" transform="translate(48.991 34.1)" fill="#282b47"/>
      <rect id="Rectangle_140173" data-name="Rectangle 140173" width="0.22" height="6.281" transform="translate(50.12 34.095)" fill="#fff"/>
      <rect id="Rectangle_140174" data-name="Rectangle 140174" width="0.22" height="6.281" transform="translate(51.36 34.095)" fill="#fff"/>
      <rect id="Rectangle_140175" data-name="Rectangle 140175" width="3.788" height="0.22" transform="translate(48.954 35.556)" fill="#fff"/>
      <rect id="Rectangle_140176" data-name="Rectangle 140176" width="3.766" height="0.22" transform="translate(48.976 37.121)" fill="#fff"/>
      <rect id="Rectangle_140177" data-name="Rectangle 140177" width="3.766" height="0.22" transform="translate(48.976 38.687)" fill="#fff"/>
      <path id="Path_18606" data-name="Path 18606" d="M73.729,38.249V37.137H68.19v1.112h.317v5.7H68.19v1.112h5.539V43.946h-.317v-5.7Z" transform="translate(-7.096 -3.865)" fill="#fff"/>
      <rect id="Rectangle_140178" data-name="Rectangle 140178" width="3.72" height="6.263" transform="translate(62.002 34.1)" fill="#282b47"/>
      <rect id="Rectangle_140179" data-name="Rectangle 140179" width="0.22" height="6.281" transform="translate(63.132 34.095)" fill="#fff"/>
      <rect id="Rectangle_140180" data-name="Rectangle 140180" width="0.22" height="6.281" transform="translate(64.373 34.095)" fill="#fff"/>
      <rect id="Rectangle_140181" data-name="Rectangle 140181" width="3.788" height="0.22" transform="translate(61.966 35.556)" fill="#fff"/>
      <rect id="Rectangle_140182" data-name="Rectangle 140182" width="3.766" height="0.22" transform="translate(61.989 37.121)" fill="#fff"/>
      <rect id="Rectangle_140183" data-name="Rectangle 140183" width="3.766" height="0.22" transform="translate(61.989 38.687)" fill="#fff"/>
      <path id="Path_18607" data-name="Path 18607" d="M88.253,38.249V37.137H82.714v1.112h.317v5.7h-.317v1.112h5.539V43.946h-.317v-5.7Z" transform="translate(-8.608 -3.865)" fill="#fff"/>
      <rect id="Rectangle_140184" data-name="Rectangle 140184" width="3.72" height="6.263" transform="translate(75.02 34.1)" fill="#282b47"/>
      <rect id="Rectangle_140185" data-name="Rectangle 140185" width="0.22" height="6.281" transform="translate(76.15 34.095)" fill="#fff"/>
      <rect id="Rectangle_140186" data-name="Rectangle 140186" width="0.22" height="6.281" transform="translate(77.389 34.095)" fill="#fff"/>
      <rect id="Rectangle_140187" data-name="Rectangle 140187" width="3.788" height="0.22" transform="translate(74.983 35.556)" fill="#fff"/>
      <rect id="Rectangle_140188" data-name="Rectangle 140188" width="3.766" height="0.22" transform="translate(75.006 37.121)" fill="#fff"/>
      <rect id="Rectangle_140189" data-name="Rectangle 140189" width="3.766" height="0.22" transform="translate(75.006 38.687)" fill="#fff"/>
      <path id="Path_18608" data-name="Path 18608" d="M59.673,51.354c-.25-.979-1.629-1.729-3.3-1.729s-3.046.75-3.3,1.729Z" transform="translate(-5.523 -5.164)" fill="#fff"/>
      <rect id="Rectangle_140190" data-name="Rectangle 140190" width="5.327" height="11.219" transform="translate(48.187 46.189)" fill="#fff"/>
      <rect id="Rectangle_140191" data-name="Rectangle 140191" width="3.72" height="9.155" transform="translate(48.991 47.221)" fill="#282b47"/>
      <rect id="Rectangle_140192" data-name="Rectangle 140192" width="0.22" height="9.238" transform="translate(50.12 47.157)" fill="#fff"/>
      <rect id="Rectangle_140193" data-name="Rectangle 140193" width="0.22" height="9.238" transform="translate(51.36 47.157)" fill="#fff"/>
      <rect id="Rectangle_140194" data-name="Rectangle 140194" width="3.867" height="0.221" transform="translate(48.968 48.941)" fill="#fff"/>
      <rect id="Rectangle_140195" data-name="Rectangle 140195" width="3.867" height="0.221" transform="translate(48.968 50.773)" fill="#fff"/>
      <rect id="Rectangle_140196" data-name="Rectangle 140196" width="3.867" height="0.221" transform="translate(48.968 52.604)" fill="#fff"/>
      <rect id="Rectangle_140197" data-name="Rectangle 140197" width="3.903" height="0.221" transform="translate(48.932 54.434)" fill="#fff"/>
      <path id="Path_18609" data-name="Path 18609" d="M88.725,51.354c-.25-.979-1.629-1.729-3.3-1.729s-3.046.75-3.3,1.729Z" transform="translate(-8.547 -5.164)" fill="#fff"/>
      <rect id="Rectangle_140198" data-name="Rectangle 140198" width="5.327" height="11.219" transform="translate(74.215 46.189)" fill="#fff"/>
      <rect id="Rectangle_140199" data-name="Rectangle 140199" width="3.72" height="9.155" transform="translate(75.02 47.221)" fill="#282b47"/>
      <rect id="Rectangle_140200" data-name="Rectangle 140200" width="0.22" height="9.238" transform="translate(76.149 47.157)" fill="#fff"/>
      <rect id="Rectangle_140201" data-name="Rectangle 140201" width="0.22" height="9.238" transform="translate(77.389 47.157)" fill="#fff"/>
      <rect id="Rectangle_140202" data-name="Rectangle 140202" width="3.867" height="0.221" transform="translate(74.998 48.941)" fill="#fff"/>
      <rect id="Rectangle_140203" data-name="Rectangle 140203" width="3.867" height="0.221" transform="translate(74.998 50.773)" fill="#fff"/>
      <rect id="Rectangle_140204" data-name="Rectangle 140204" width="3.867" height="0.221" transform="translate(74.998 52.604)" fill="#fff"/>
      <rect id="Rectangle_140205" data-name="Rectangle 140205" width="3.903" height="0.221" transform="translate(74.961 54.434)" fill="#fff"/>
      <rect id="Rectangle_140206" data-name="Rectangle 140206" width="43.4" height="3.166" transform="translate(42.165 59.549)" fill="#282b47"/>
      <path id="Path_18610" data-name="Path 18610" d="M46.7,66.1V69.6h.653v-2.84H90.1V69.6h.652V66.1Z" transform="translate(-4.86 -6.879)" fill="#fff"/>
      <path id="Path_18611" data-name="Path 18611" d="M142.118,30.361h-7.06V29.017h7.451Z" transform="translate(-14.055 -3.02)" fill="#282b47"/>
      <path id="Path_18612" data-name="Path 18612" d="M.391,30.361h7.06V29.017H0Z" transform="translate(0 -3.02)" fill="#282b47"/>
      <path id="Path_18613" data-name="Path 18613" d="M61.783,30.938v.757a.5.5,0,0,0,.008.09.47.47,0,0,0,.463.344.488.488,0,0,0,.315-.113.089.089,0,0,1,.126.008.087.087,0,0,1,.022.054l-.313,30.691h2.761l-.312-30.691a.09.09,0,0,1,.095-.084.087.087,0,0,1,.054.022.489.489,0,0,0,.315.112.469.469,0,0,0,.463-.344.428.428,0,0,0,.009-.09v-.757Z" transform="translate(-6.43 -3.22)" fill="#fff"/>
      <path id="Path_18614" data-name="Path 18614" d="M47.255,30.938V31.7a.428.428,0,0,0,.009.09.47.47,0,0,0,.463.344.488.488,0,0,0,.315-.113.09.09,0,0,1,.126.01.085.085,0,0,1,.022.052l-.312,30.691H50.64l-.315-30.69a.09.09,0,0,1,.1-.083.093.093,0,0,1,.052.021.489.489,0,0,0,.315.112.47.47,0,0,0,.463-.344.428.428,0,0,0,.009-.09v-.757Z" transform="translate(-4.918 -3.22)" fill="#fff"/>
      <path id="Path_18615" data-name="Path 18615" d="M90.837,30.938v.757a.427.427,0,0,0,.009.09.47.47,0,0,0,.463.344.488.488,0,0,0,.315-.113.09.09,0,0,1,.126.01.085.085,0,0,1,.021.052L91.46,62.769h2.761l-.313-30.691a.09.09,0,0,1,.1-.083.087.087,0,0,1,.052.022.489.489,0,0,0,.315.112.47.47,0,0,0,.463-.344.428.428,0,0,0,.009-.09v-.757Z" transform="translate(-9.453 -3.22)" fill="#fff"/>
      <path id="Path_18616" data-name="Path 18616" d="M76.31,30.938v.757a.428.428,0,0,0,.009.09.47.47,0,0,0,.463.344.488.488,0,0,0,.315-.113.09.09,0,0,1,.126.01.085.085,0,0,1,.021.052l-.312,30.691h2.761l-.312-30.691a.09.09,0,0,1,.1-.083.093.093,0,0,1,.052.022.489.489,0,0,0,.315.112.47.47,0,0,0,.463-.344.429.429,0,0,0,.009-.09v-.757Z" transform="translate(-7.941 -3.22)" fill="#fff"/>
      <rect id="Rectangle_140207" data-name="Rectangle 140207" width="45.049" height="3.787" transform="translate(41.516 23.931)" fill="#282b47"/>
      <path id="Path_18617" data-name="Path 18617" d="M91.646,30.758H46.009V26.383H91.646ZM46.6,30.17H91.057v-3.2H46.6Z" transform="translate(-4.788 -2.746)" fill="#fff"/>
      <path id="Path_18618" data-name="Path 18618" d="M68.619,15.252l11.468,5.133,11.468,5.134H45.674l11.468-5.134Z" transform="translate(-4.753 -1.587)" fill="#282b47"/>
      <path id="Path_18619" data-name="Path 18619" d="M92.776,25.775H44.141L68.458,14.892ZM46.9,25.187H90.021L68.458,15.536Z" transform="translate(-4.594 -1.55)" fill="#fff"/>
    </g>
  </g>
</svg>
